<!--?xml version="1.0" standalone="no"?-->
              <svg id="sw-js-blob-svg" viewBox="0 0 100 100" xmlns="http://www.w3.org/2000/svg" version="1.1">
                    <defs> 
                        <linearGradient id="sw-gradient" x1="0" x2="1" y1="1" y2="0">
                            <stop id="stop1" stop-color="rgba(230, 57, 70, 1)" offset="0%"></stop>
                            <stop id="stop2" stop-color="rgba(233.548, 98.974, 109.086, 1)" offset="100%"></stop>
                        </linearGradient>
                    </defs>
                <path fill="url(#sw-gradient)" d="M16.7,-19.2C22.6,-15,29.1,-10.6,31.4,-4.5C33.7,1.6,31.9,9.5,28.7,17.9C25.4,26.2,20.7,35.1,14,36.9C7.2,38.7,-1.6,33.6,-9.9,29.5C-18.2,25.5,-26.1,22.5,-29.8,16.9C-33.5,11.2,-32.9,2.7,-30,-3.8C-27.1,-10.3,-21.7,-14.9,-16.3,-19.2C-10.9,-23.5,-5.4,-27.6,0,-27.5C5.4,-27.5,10.8,-23.4,16.7,-19.2Z" width="100%" height="100%" transform="translate(50 50)" stroke-width="0" style="transition: all 0.3s ease 0s;" stroke="url(#sw-gradient)"></path>
              </svg>