<!--?xml version="1.0" standalone="no"?-->
              <svg id="sw-js-blob-svg" viewBox="0 0 100 100" xmlns="http://www.w3.org/2000/svg" version="1.1">
                    <defs> 
                        <linearGradient id="sw-gradient" x1="0" x2="1" y1="1" y2="0">
                            <stop id="stop1" stop-color="rgba(230, 57, 70, 1)" offset="0%"></stop>
                            <stop id="stop2" stop-color="rgba(233.548, 98.974, 109.086, 1)" offset="100%"></stop>
                        </linearGradient>
                    </defs>
                <path fill="url(#sw-gradient)" d="M17,-20.1C20.4,-17.5,20.3,-10.5,22.6,-3.1C25,4.2,29.7,12.1,28.7,19.1C27.7,26.2,20.9,32.5,13.6,33.5C6.3,34.5,-1.5,30.1,-8.1,26.1C-14.7,22,-20,18.4,-22.7,13.3C-25.3,8.3,-25.3,1.9,-24.6,-4.7C-23.9,-11.4,-22.5,-18.3,-18.3,-20.8C-14.1,-23.3,-7.1,-21.4,-0.1,-21.2C6.8,-21.1,13.7,-22.8,17,-20.1Z" width="100%" height="100%" transform="translate(50 50)" stroke-width="0" style="transition: all 0.3s ease 0s;" stroke="url(#sw-gradient)"></path>
              </svg>